<?xml version="1.0" encoding="utf-8"?>
<!-- Generator: Adobe Illustrator 27.9.0, SVG Export Plug-In . SVG Version: 6.00 Build 0)  -->
<svg version="1.1" id="Layer_1" xmlns="http://www.w3.org/2000/svg" xmlns:xlink="http://www.w3.org/1999/xlink" x="0px" y="0px"
	 viewBox="0 0 406.43 54.55" style="enable-background:new 0 0 406.43 54.55;" xml:space="preserve">
<style type="text/css">
	.st0{fill:#1D1C57;}
	.st1{fill:#9696CA;}
	.st2{fill:#301111;}
	.st3{fill:#F89A1C;}
	.st4{fill:#071F35;}
	.st5{fill:#56A1D8;}
	.st6{clip-path:url(#SVGID_00000096781695180417847010000017268603289918178193_);}
	.st7{fill:#FFFFFF;filter:url(#Adobe_OpacityMaskFilter);}
	.st8{mask:url(#mask0_00000066493461098083023320000010226124555199456168_);}
	.st9{fill:url(#SVGID_00000029041198638636616270000008340802166947844246_);}
	.st10{fill:#010101;fill-opacity:0.2;}
	.st11{fill:#010101;fill-opacity:0.18;}
	.st12{fill:url(#SVGID_00000166642315559539468280000001025962749002210988_);}
	.st13{fill:url(#SVGID_00000044142154948120217380000014033798566944466325_);}
	.st14{fill:url(#SVGID_00000036209562050651491160000017600825764831936385_);}
	.st15{fill:url(#SVGID_00000174578771523459350120000009118922107124507030_);}
	.st16{fill:url(#SVGID_00000010295943658980596000000000281644582948089998_);}
	.st17{fill:url(#SVGID_00000148656126624844619740000008478117769989950861_);}
	.st18{fill:url(#SVGID_00000112629909122371271970000003828456323693392319_);}
	.st19{fill:url(#SVGID_00000019674455229884106280000015509653077643188921_);}
	.st20{fill:url(#SVGID_00000026162961783741017060000007970553346564202670_);}
	.st21{fill:url(#SVGID_00000029764239224652676390000005922294919994181015_);}
	.st22{fill:url(#SVGID_00000142897837579083330010000011970878876050621362_);}
	.st23{fill:url(#SVGID_00000135656394767367084170000014928343133795929237_);}
	.st24{fill:#FFFFFF;}
	.st25{fill:url(#SVGID_00000090977213181794664570000005712119099037413813_);}
	.st26{fill:url(#SVGID_00000139285180671910105280000009648632347840026298_);}
	.st27{fill:url(#SVGID_00000102532406112993096000000017019820419488725926_);}
	.st28{fill:url(#SVGID_00000176761557896017917220000016087082405110016132_);}
	.st29{fill:url(#SVGID_00000101091765781725715630000000724391767512835715_);}
	.st30{fill:url(#SVGID_00000015338138624140919690000011460244646437451946_);}
	.st31{fill:url(#SVGID_00000072972050221785316270000007669508084386387853_);}
	.st32{fill:url(#SVGID_00000136377614550835494770000011888066264089462683_);}
	.st33{fill:url(#SVGID_00000069381238298413501730000008332070627324079775_);}
	.st34{fill:url(#SVGID_00000043435073894831149200000006938199765543415964_);}
	.st35{fill:url(#SVGID_00000122704700420820863730000005277975934563617176_);}
	.st36{fill:url(#SVGID_00000116952256328605964020000003567940310703606150_);}
	.st37{fill:url(#SVGID_00000109003786279281012300000008441910766810094755_);fill-opacity:0.6;}
	.st38{fill:url(#SVGID_00000000929076762655861850000000055077694061847981_);fill-opacity:0.1;}
	.st39{fill:url(#SVGID_00000000919922395828578740000013145988841597934496_);}
	.st40{fill:url(#SVGID_00000083792480157085781200000006635723548748115333_);fill-opacity:0.8;}
	.st41{fill:url(#SVGID_00000163049286280106250660000016851135120190939527_);}
	.st42{fill:url(#SVGID_00000048480138111580970710000010529748681277415086_);fill-opacity:0.65;}
</style>
<g>
	<g>
		<g>
			<path id="Vector" class="st0" d="M33.92,8.14H8.64c-3.9,0-7.07,3.16-7.07,7.07v25.28c0,3.9,3.16,7.07,7.07,7.07h25.28
				c3.9,0,7.07-3.16,7.07-7.07V15.21C40.99,11.3,37.82,8.14,33.92,8.14z"/>
			<path id="Vector_2" class="st1" d="M11.65,18.6h5.8l6.51,18.17h-5.31L17.75,34h-6.81l-0.89,2.77h-5.1L11.65,18.6z M16.34,29.69
				l-1.98-6.1l-1.98,6.1H16.34z"/>
			<path id="Vector_3" class="st1" d="M37.61,29.28c0,0.65-0.05,1.36-0.14,1.9h-8.87c0.54,1.36,1.84,2.01,3.88,2.01
				c1.46,0,2.74-0.27,4.01-0.87l0.05,3.77c-1.38,0.7-2.87,0.95-4.8,0.95c-4.75,0-7.92-2.63-7.92-7.4c0-4.37,3.04-7.27,7.05-7.27
				C35.01,22.37,37.61,25.02,37.61,29.28z M28.45,28.09h4.75c-0.11-1.27-0.89-2.17-2.28-2.17C29.59,25.92,28.75,26.62,28.45,28.09z"
				/>
		</g>
		<g>
			<path class="st2" d="M106.16,8.14h25.94c3.72,0,6.74,3.02,6.74,6.74v25.94c0,3.72-3.02,6.74-6.74,6.74h-25.94
				c-3.72,0-6.74-3.02-6.74-6.74V14.87C99.43,11.15,102.44,8.14,106.16,8.14z"/>
			<path class="st3" d="M118.68,18.57h-5.9l-6.77,18.23h5.28l0.88-2.72h6.78l0.88,2.72h5.44L118.68,18.57L118.68,18.57z
				 M115.55,29.52h-1.92l1.92-5.94l1.92,5.94H115.55z"/>
			<rect x="125.93" y="22.44" class="st3" width="4.88" height="14.35"/>
			<path class="st3" d="M130.97,19.85c0.01,1.34-1.07,2.28-2.6,2.27c-1.53,0.01-2.62-0.93-2.6-2.27c-0.01-1.34,1.07-2.28,2.6-2.27
				C129.91,17.56,130.99,18.51,130.97,19.85z"/>
		</g>
		<g>
			<path id="Vector_00000063616175527297825450000006012021590503006896_" class="st4" d="M82.85,8.14H57.57
				c-3.9,0-7.07,3.16-7.07,7.07v25.28c0,3.9,3.16,7.07,7.07,7.07h25.28c3.9,0,7.07-3.16,7.07-7.07V15.21
				C89.91,11.3,86.75,8.14,82.85,8.14z"/>
			<path id="Vector_2_00000158004186035671980070000012408372259281355687_" class="st5" d="M64.26,18.6c5.15,0,8.05,2.41,8.05,6.45
				c0,4.72-3.93,6.62-7.62,6.62H62.2v5.1h-5.04V18.6H64.26z M62.2,22.91v4.45h2.22c1.55,0,2.63-0.62,2.63-2.2
				c0-1.44-0.92-2.25-2.52-2.25H62.2z"/>
			<path id="Vector_3_00000012468547693647583030000011442407273146831504_" class="st5" d="M73.34,35.87l0.03-4.2
				c1.44,0.95,3.44,1.55,4.83,1.55c0.95,0,1.38-0.27,1.38-0.76c0-0.54-0.6-0.76-1.74-1.11c-2.2-0.65-4.61-1.55-4.61-4.42
				c0-2.93,2.41-4.56,5.91-4.56c1.65,0,3.01,0.24,4.2,0.76l-0.03,4.01c-0.95-0.57-2.82-1.08-4.04-1.08c-0.89,0-1.25,0.27-1.25,0.68
				c0,0.49,0.43,0.62,1.74,1.03c2.52,0.76,4.64,1.57,4.64,4.53c0,2.82-2.3,4.72-5.91,4.72C76.6,37.01,74.81,36.68,73.34,35.87z"/>
		</g>
		<g>
			<path id="Vector_00000135660916286897564720000015214570977063488909_" class="st0" d="M180.7,8.14h-25.28
				c-3.9,0-7.07,3.16-7.07,7.07v25.28c0,3.9,3.16,7.07,7.07,7.07h25.28c3.9,0,7.07-3.16,7.07-7.07V15.21
				C187.76,11.3,184.6,8.14,180.7,8.14z"/>
			<path id="Vector_2_00000100349660029041482500000016537896091348108691_" class="st1" d="M163.55,18.6
				c5.15,0,8.05,2.41,8.05,6.45c0,4.72-3.93,6.62-7.62,6.62h-2.49v5.1h-5.04V18.6H163.55z M161.49,22.91v4.45h2.22
				c1.55,0,2.63-0.62,2.63-2.2c0-1.44-0.92-2.25-2.52-2.25H161.49z"/>
			<path id="Vector_3_00000047742949198489447600000001166375132559835302_" class="st1" d="M178.63,22.37
				c1.11,0,2.01,0.14,2.41,0.27v3.69c-0.33-0.08-0.95-0.14-1.46-0.14c-1,0-1.57,0.08-2.09,0.27v10.3h-4.75V23.56
				C174.46,22.8,176.17,22.37,178.63,22.37z"/>
		</g>
	</g>
	<g>
		<g>
			<g>
				<defs>
					<rect id="SVGID_1_" x="365.45" y="7.57" width="39.41" height="39.41"/>
				</defs>
				<clipPath id="SVGID_00000109017057222789996340000009326080403325280941_">
					<use xlink:href="#SVGID_1_"  style="overflow:visible;"/>
				</clipPath>
				<g style="clip-path:url(#SVGID_00000109017057222789996340000009326080403325280941_);">
					<defs>
						<filter id="Adobe_OpacityMaskFilter" filterUnits="userSpaceOnUse" x="370.37" y="7.57" width="29.56" height="40.23">
							<feColorMatrix  type="matrix" values="1 0 0 0 0  0 1 0 0 0  0 0 1 0 0  0 0 0 1 0"/>
						</filter>
					</defs>
					
						<mask maskUnits="userSpaceOnUse" x="370.37" y="7.57" width="29.56" height="40.23" id="mask0_00000066493461098083023320000010226124555199456168_">
						<path class="st7" d="M386.79,9.21c0-0.91,0.74-1.64,1.64-1.64h9.85c0.91,0,1.64,0.74,1.64,1.64v36.13
							c0,0.91-0.74,1.64-1.64,1.64h-26.27c-0.91,0-1.64-0.74-1.64-1.64V28.92c0-0.91,0.74-1.64,1.64-1.64h6.57v-8.21
							c0-0.91,0.74-1.64,1.64-1.64h6.57V9.21z"/>
					</mask>
					<g class="st8">
						
							<linearGradient id="SVGID_00000116929512291581754990000000881231512319372445_" gradientUnits="userSpaceOnUse" x1="384.1628" y1="47.6709" x2="401.4866" y2="10.9504" gradientTransform="matrix(1 0 0 -1 0 55.4489)">
							<stop  offset="0" style="stop-color:#E5AD23"/>
							<stop  offset="1" style="stop-color:#C77F2A"/>
						</linearGradient>
						<path style="fill:url(#SVGID_00000116929512291581754990000000881231512319372445_);" d="M399.93,7.57v39.41h-13.14V7.57
							H399.93z"/>
						<g>
							<path class="st10" d="M391.72,19.23v27.92h-13.14V17.59h11.49C390.98,17.59,391.72,18.32,391.72,19.23z"/>
						</g>
						<g>
							<path class="st11" d="M391.72,19.89V47.8h-13.14V18.24h11.49C390.98,18.24,391.72,18.98,391.72,19.89z"/>
						</g>
						
							<linearGradient id="SVGID_00000102545977399780856690000008529130305539032983_" gradientUnits="userSpaceOnUse" x1="377.498" y1="37.467" x2="392.0671" y2="9.2118" gradientTransform="matrix(1 0 0 -1 0 55.4489)">
							<stop  offset="0" style="stop-color:#F6D750"/>
							<stop  offset="1" style="stop-color:#E5AD23"/>
						</linearGradient>
						<path style="fill:url(#SVGID_00000102545977399780856690000008529130305539032983_);" d="M391.72,19.06v27.92h-13.14V17.42
							h11.49C390.98,17.42,391.72,18.16,391.72,19.06z"/>
						
							<linearGradient id="SVGID_00000052809379628155101230000000505893595946177926_" gradientUnits="userSpaceOnUse" x1="372.1841" y1="28.938" x2="380.2349" y2="9.8576" gradientTransform="matrix(1 0 0 -1 0 55.4489)">
							<stop  offset="0" style="stop-color:#F9E488"/>
							<stop  offset="1" style="stop-color:#F6D750"/>
						</linearGradient>
						<path style="fill:url(#SVGID_00000052809379628155101230000000505893595946177926_);" d="M370.37,27.28v19.71h13.14V28.92
							c0-0.91-0.74-1.64-1.64-1.64H370.37z"/>
					</g>
				</g>
			</g>
		</g>
		<g id="surface1">
			
				<radialGradient id="SVGID_00000059273366707072345880000003160551311509324686_" cx="-960.3689" cy="-159.5777" r="1.1263" gradientTransform="matrix(-28.326 -29.8076 23.1192 -21.9799 -23206.957 -32083.6895)" gradientUnits="userSpaceOnUse">
				<stop  offset="0.06" style="stop-color:#389645"/>
				<stop  offset="0.42" style="stop-color:#2C7D3D"/>
				<stop  offset="0.7" style="stop-color:#1D572B"/>
			</radialGradient>
			<path style="fill:url(#SVGID_00000059273366707072345880000003160551311509324686_);" d="M273.22,19.95
				c0-2.8,2.27-5.07,5.07-5.07h28.71v29.28c0,1.87-1.51,3.38-3.38,3.38h-23.65c-3.73,0-6.76-3.03-6.76-6.76V19.95z"/>
			
				<radialGradient id="SVGID_00000025421204646813566450000006617284743079328170_" cx="-1012.4161" cy="-151.6411" r="1.1263" gradientTransform="matrix(-11.9761 -11.5814 8.9585 -9.2681 -10482.8936 -13103.8203)" gradientUnits="userSpaceOnUse">
				<stop  offset="0" style="stop-color:#183C1D;stop-opacity:0.698"/>
				<stop  offset="0.99" style="stop-color:#1C4A24;stop-opacity:0"/>
			</radialGradient>
			<path style="fill:url(#SVGID_00000025421204646813566450000006617284743079328170_);" d="M273.22,19.95
				c0-2.8,2.27-5.07,5.07-5.07h28.71v29.28c0,1.87-1.51,3.38-3.38,3.38h-23.65c-3.73,0-6.76-3.03-6.76-6.76V19.95z"/>
			
				<linearGradient id="SVGID_00000039823608267119851760000013077316041257763723_" gradientUnits="userSpaceOnUse" x1="273.2249" y1="719.2059" x2="288.7464" y2="719.2059" gradientTransform="matrix(1 0 0 1 0 -688.5511)">
				<stop  offset="0" style="stop-color:#65BF7A"/>
				<stop  offset="0.33" style="stop-color:#4BA647"/>
			</linearGradient>
			<path style="fill:url(#SVGID_00000039823608267119851760000013077316041257763723_);" d="M273.22,25.59
				c0-2.8,2.27-5.07,5.07-5.07h15.2c-1.87,0-3.38,1.51-3.38,3.38v6.76c0,1.87-1.51,3.38-3.38,3.38h-6.76
				c-3.73,0-6.76,3.03-6.76,6.76L273.22,25.59L273.22,25.59z"/>
			
				<linearGradient id="SVGID_00000009579108974496642260000008468657592883966105_" gradientUnits="userSpaceOnUse" x1="283.3592" y1="709.0696" x2="283.3592" y2="723.1509" gradientTransform="matrix(1 0 0 1 0 -688.5511)">
				<stop  offset="0" style="stop-color:#2C8641;stop-opacity:0.302"/>
				<stop  offset="0.5" style="stop-color:#4BA647;stop-opacity:0"/>
			</linearGradient>
			<path style="fill:url(#SVGID_00000009579108974496642260000008468657592883966105_);" d="M273.22,25.59
				c0-2.8,2.27-5.07,5.07-5.07h15.2c-1.87,0-3.38,1.51-3.38,3.38v6.76c0,1.87-1.51,3.38-3.38,3.38h-6.76
				c-3.73,0-6.76,3.03-6.76,6.76L273.22,25.59L273.22,25.59z"/>
			
				<linearGradient id="SVGID_00000082327676462007644140000017882264865683541937_" gradientUnits="userSpaceOnUse" x1="274.1218" y1="712.1599" x2="292.8504" y2="695.9158" gradientTransform="matrix(1 0 0 1 0 -688.5511)">
				<stop  offset="0" style="stop-color:#73C054"/>
				<stop  offset="1" style="stop-color:#94CB6E"/>
			</linearGradient>
			<path style="fill:url(#SVGID_00000082327676462007644140000017882264865683541937_);" d="M273.22,13.76
				c0-3.73,3.02-6.76,6.76-6.76h13.51v13.52h-13.51c-3.73,0-6.76,3.03-6.76,6.76V13.76z"/>
			
				<radialGradient id="SVGID_00000088105362075681968580000001449700629197681582_" cx="-1057.0157" cy="-213.1239" r="1.1263" gradientTransform="matrix(-9.02 0 0 -19.09 -9241.2998 -4053.1714)" gradientUnits="userSpaceOnUse">
				<stop  offset="0.29" style="stop-color:#50B448"/>
				<stop  offset="1" style="stop-color:#79C263;stop-opacity:0"/>
			</radialGradient>
			<path style="fill:url(#SVGID_00000088105362075681968580000001449700629197681582_);" d="M273.22,13.76
				c0-3.73,3.02-6.76,6.76-6.76h13.51v13.52h-13.51c-3.73,0-6.76,3.03-6.76,6.76V13.76z"/>
			
				<linearGradient id="SVGID_00000125576431985105105430000011232940399754898061_" gradientUnits="userSpaceOnUse" x1="282.3622" y1="705.6904" x2="273.2249" y2="705.6904" gradientTransform="matrix(1 0 0 1 0 -688.5511)">
				<stop  offset="0.18" style="stop-color:#C1DB78;stop-opacity:0"/>
				<stop  offset="1" style="stop-color:#D1E396"/>
			</linearGradient>
			<path style="fill:url(#SVGID_00000125576431985105105430000011232940399754898061_);" d="M273.22,13.76
				c0-3.73,3.02-6.76,6.76-6.76h13.51v13.52h-13.51c-3.73,0-6.76,3.03-6.76,6.76V13.76z"/>
			
				<radialGradient id="SVGID_00000153691467525225143550000016235119961997131399_" cx="-992.5206" cy="-171.8006" r="1.1263" gradientTransform="matrix(-16.9077 -13.6818 -13.6411 16.8634 -18815.4141 -10659.7539)" gradientUnits="userSpaceOnUse">
				<stop  offset="0.44" style="stop-color:#8CC869"/>
				<stop  offset="1" style="stop-color:#CFE07B"/>
			</radialGradient>
			<path style="fill:url(#SVGID_00000153691467525225143550000016235119961997131399_);" d="M293.49,7h10.13
				c1.87,0,3.38,1.51,3.38,3.38v6.76c0,1.87-1.51,3.38-3.38,3.38h-10.13c-1.87,0-3.38-1.51-3.38-3.38v-6.76
				C290.11,8.52,291.63,7,293.49,7z"/>
			
				<radialGradient id="SVGID_00000134938010563961309660000001091942317536757685_" cx="-861.368" cy="-171.5635" r="1.1263" gradientTransform="matrix(15.992 15.9975 -45.5415 45.548 6229.8257 21620.3906)" gradientUnits="userSpaceOnUse">
				<stop  offset="0" style="stop-color:#20A85D"/>
				<stop  offset="0.94" style="stop-color:#0A452A"/>
			</radialGradient>
			<path style="fill:url(#SVGID_00000134938010563961309660000001091942317536757685_);" d="M271.25,26.15h10.7
				c2.02,0,3.66,1.64,3.66,3.66v10.7c0,2.02-1.64,3.66-3.66,3.66h-10.7c-2.02,0-3.66-1.64-3.66-3.66v-10.7
				C267.59,27.79,269.23,26.15,271.25,26.15z"/>
			
				<radialGradient id="SVGID_00000105390521027035620590000000212260503804206976_" cx="-848.2994" cy="-260.0485" r="1.1263" gradientTransform="matrix(6.860000e-16 11.2 -12.9 7.900000e-16 -3077.8164 9537.915)" gradientUnits="userSpaceOnUse">
				<stop  offset="0.58" style="stop-color:#32A763;stop-opacity:0"/>
				<stop  offset="0.97" style="stop-color:#A4D5A8;stop-opacity:0.302"/>
			</radialGradient>
			<path style="fill:url(#SVGID_00000105390521027035620590000000212260503804206976_);" d="M271.25,26.15h10.7
				c2.02,0,3.66,1.64,3.66,3.66v10.7c0,2.02-1.64,3.66-3.66,3.66h-10.7c-2.02,0-3.66-1.64-3.66-3.66v-10.7
				C267.59,27.79,269.23,26.15,271.25,26.15z"/>
			<path class="st24" d="M281.34,40.31h-2.78l-1.74-3.28c-0.06-0.11-0.11-0.21-0.14-0.27c-0.03-0.07-0.06-0.15-0.09-0.24h-0.03
				c-0.04,0.12-0.08,0.21-0.12,0.28c-0.04,0.07-0.08,0.16-0.14,0.27l-1.81,3.25h-2.62l3.14-5.16l-2.93-5.14h2.74l1.55,2.93
				c0.06,0.12,0.12,0.23,0.16,0.32c0.05,0.09,0.1,0.19,0.14,0.31h0.03c0.07-0.14,0.12-0.25,0.16-0.33c0.04-0.08,0.1-0.19,0.17-0.32
				l1.61-2.9h2.61l-2.97,5.06L281.34,40.31L281.34,40.31z"/>
		</g>
		<g id="surface1_00000003807099515336741340000016797288939150512319_">
			
				<linearGradient id="SVGID_00000022555535443197496120000015973237703238357653_" gradientUnits="userSpaceOnUse" x1="-294.8901" y1="-194.6111" x2="-296.4477" y2="-193.121" gradientTransform="matrix(15 0 0 15 4769.3335 2937.7163)">
				<stop  offset="0.0583" style="stop-color:#F47E4B"/>
				<stop  offset="1" style="stop-color:#E6495C"/>
			</linearGradient>
			<path style="fill:url(#SVGID_00000022555535443197496120000015973237703238357653_);" d="M355.93,27.28
				c0-10.53-8.54-19.07-19.07-19.07s-19.07,8.54-19.07,19.07s8.54,19.07,19.07,19.07S355.93,37.81,355.93,27.28z"/>
			
				<radialGradient id="SVGID_00000142869468464387652570000001137209390293386920_" cx="-340.1108" cy="-255.1997" r="0.0678" gradientTransform="matrix(-399.2887 399.2887 -672.0565 -672.0565 -306966.625 -35686.9844)" gradientUnits="userSpaceOnUse">
				<stop  offset="0.1515" style="stop-color:#AA1E2E"/>
				<stop  offset="0.3809" style="stop-color:#D12E27;stop-opacity:0.4392"/>
				<stop  offset="0.602" style="stop-color:#EF4423;stop-opacity:0"/>
			</radialGradient>
			<path style="fill:url(#SVGID_00000142869468464387652570000001137209390293386920_);" d="M355.93,27.28
				c0-10.53-8.54-19.07-19.07-19.07s-19.07,8.54-19.07,19.07s8.54,19.07,19.07,19.07S355.93,37.81,355.93,27.28z"/>
			
				<radialGradient id="SVGID_00000016062364647714067210000016654897684650288821_" cx="-339.7999" cy="-253.9434" r="0.0678" gradientTransform="matrix(484.0121 -228.6178 414.1745 876.8583 269955.2812 145030.8438)" gradientUnits="userSpaceOnUse">
				<stop  offset="0.4067" style="stop-color:#CA78B1;stop-opacity:0.502"/>
				<stop  offset="1" style="stop-color:#E84224;stop-opacity:0"/>
			</radialGradient>
			<path style="fill:url(#SVGID_00000016062364647714067210000016654897684650288821_);" d="M355.93,27.28
				c0-10.53-8.54-19.07-19.07-19.07s-19.07,8.54-19.07,19.07s8.54,19.07,19.07,19.07S355.93,37.81,355.93,27.28z"/>
			
				<linearGradient id="SVGID_00000070804450893334418480000018202941868488461226_" gradientUnits="userSpaceOnUse" x1="-295.5063" y1="-194.0823" x2="-294.1381" y2="-195.0964" gradientTransform="matrix(15 0 0 15 4769.3335 2937.7163)">
				<stop  offset="0.3108" style="stop-color:#F36F35"/>
				<stop  offset="0.6346" style="stop-color:#F89F5F"/>
			</linearGradient>
			<path style="fill:url(#SVGID_00000070804450893334418480000018202941868488461226_);" d="M336.86,8.21
				c10.53,0,19.07,8.54,19.07,19.07c0,3.5-0.95,6.79-2.59,9.61l0.31-0.69c1.89-4.19-1.18-8.93-5.78-8.93l-7.59,0.01
				c-1.89,0-3.42-1.53-3.42-3.41v-7.6c0-4.6-4.75-7.66-8.94-5.77l-0.61,0.28C330.12,9.14,333.38,8.21,336.86,8.21z"/>
			
				<radialGradient id="SVGID_00000134931604759222210250000010957837930705889696_" cx="-339.402" cy="-253.3067" r="0.0678" gradientTransform="matrix(355.8576 74.5688 -71.0897 339.2547 103104.9453 111273.8438)" gradientUnits="userSpaceOnUse">
				<stop  offset="0.7859" style="stop-color:#F89F5F;stop-opacity:0"/>
				<stop  offset="0.9049" style="stop-color:#FFCE86"/>
			</radialGradient>
			<path style="fill:url(#SVGID_00000134931604759222210250000010957837930705889696_);" d="M336.86,8.21
				c10.53,0,19.07,8.54,19.07,19.07c0,3.5-0.95,6.79-2.59,9.61l0.31-0.69c1.89-4.19-1.18-8.93-5.78-8.93l-7.59,0.01
				c-1.89,0-3.42-1.53-3.42-3.41v-7.6c0-4.6-4.75-7.66-8.94-5.77l-0.61,0.28C330.12,9.14,333.38,8.21,336.86,8.21z"/>
			
				<radialGradient id="SVGID_00000011007517584010918670000016286650811915963833_" cx="-340.7867" cy="-252.7553" r="0.0678" gradientTransform="matrix(307.2115 -201.0159 192.2338 293.7898 153619.2031 5780.3691)" gradientUnits="userSpaceOnUse">
				<stop  offset="0.2952" style="stop-color:#E59EC5;stop-opacity:0.8"/>
				<stop  offset="0.728" style="stop-color:#E59EC5;stop-opacity:0"/>
			</radialGradient>
			<path style="fill:url(#SVGID_00000011007517584010918670000016286650811915963833_);" d="M336.86,8.21
				c10.53,0,19.07,8.54,19.07,19.07c0,3.5-0.95,6.79-2.59,9.61l0.31-0.69c1.89-4.19-1.18-8.93-5.78-8.93l-7.59,0.01
				c-1.89,0-3.42-1.53-3.42-3.41v-7.6c0-4.6-4.75-7.66-8.94-5.77l-0.61,0.28C330.12,9.14,333.38,8.21,336.86,8.21z"/>
			
				<radialGradient id="SVGID_00000099664469704344709820000005437062630817613966_" cx="-341.069" cy="-252.8764" r="0.0678" gradientTransform="matrix(257.1432 -294.3951 268.8645 234.8431 156027.7656 -40992.8672)" gradientUnits="userSpaceOnUse">
				<stop  offset="0" style="stop-color:#CC7DB4"/>
				<stop  offset="0.6372" style="stop-color:#F89948"/>
				<stop  offset="0.8519" style="stop-color:#FCC57A"/>
			</radialGradient>
			<path style="fill:url(#SVGID_00000099664469704344709820000005437062630817613966_);" d="M336.86,8.21
				c10.53,0,19.07,8.54,19.07,19.07c0,3.5-0.95,6.79-2.59,9.61l0.31-0.69c1.89-4.19-1.18-8.93-5.78-8.93l-7.59,0.01
				c-1.89,0-3.42-1.53-3.42-3.41v-7.6c0-4.6-4.75-7.66-8.94-5.77l-0.61,0.28C330.12,9.14,333.38,8.21,336.86,8.21z"/>
			
				<radialGradient id="SVGID_00000174568764604483521930000008440502367352506507_" cx="-337.0834" cy="-255.6186" r="0.0678" gradientTransform="matrix(-29.0458 196.8193 -444.8148 -65.6441 -123160.7969 49575.3906)" gradientUnits="userSpaceOnUse">
				<stop  offset="0.1443" style="stop-color:#F78D20"/>
				<stop  offset="0.5373" style="stop-color:#F57E2D;stop-opacity:0"/>
			</radialGradient>
			<path style="fill:url(#SVGID_00000174568764604483521930000008440502367352506507_);" d="M336.86,8.21
				c10.53,0,19.07,8.54,19.07,19.07c0,3.5-0.95,6.79-2.59,9.61l0.31-0.69c1.89-4.19-1.18-8.93-5.78-8.93l-7.59,0.01
				c-1.89,0-3.42-1.53-3.42-3.41v-7.6c0-4.6-4.75-7.66-8.94-5.77l-0.61,0.28C330.12,9.14,333.38,8.21,336.86,8.21z"/>
			
				<radialGradient id="SVGID_00000072264266066645582210000005221804496297147294_" cx="-338.252" cy="-254.625" r="0.0678" gradientTransform="matrix(239.9998 239.9998 -239.9998 239.9998 20386.9961 142316.625)" gradientUnits="userSpaceOnUse">
				<stop  offset="0" style="stop-color:#EE2541"/>
				<stop  offset="0.9391" style="stop-color:#931A1D"/>
			</radialGradient>
			<path style="fill:url(#SVGID_00000072264266066645582210000005221804496297147294_);" d="M319.83,26.26h9.66
				c1.83,0,3.31,1.48,3.31,3.31v9.66c0,1.83-1.48,3.31-3.31,3.31h-9.66c-1.83,0-3.31-1.48-3.31-3.31v-9.66
				C316.52,27.74,318,26.26,319.83,26.26z"/>
			
				<radialGradient id="SVGID_00000080206935218629748730000001927520726568524990_" cx="-338.1216" cy="-257.089" r="0.0678" gradientTransform="matrix(1.028700e-14 168 -191.25 1.171100e-14 -48843.6055 56840.4492)" gradientUnits="userSpaceOnUse">
				<stop  offset="0.5759" style="stop-color:#FBAF56;stop-opacity:0"/>
				<stop  offset="0.9738" style="stop-color:#FFF2BE;stop-opacity:0.302"/>
			</radialGradient>
			<path style="fill:url(#SVGID_00000080206935218629748730000001927520726568524990_);" d="M319.83,26.26h9.66
				c1.83,0,3.31,1.48,3.31,3.31v9.66c0,1.83-1.48,3.31-3.31,3.31h-9.66c-1.83,0-3.31-1.48-3.31-3.31v-9.66
				C316.52,27.74,318,26.26,319.83,26.26z"/>
			<path class="st24" d="M323.86,36.02v3.03h-2.09v-9.3H325c1.16,0,2.04,0.25,2.64,0.76c0.61,0.51,0.91,1.26,0.91,2.25
				c0,1.02-0.34,1.82-1.02,2.4c-0.68,0.57-1.59,0.86-2.74,0.86H323.86z M323.86,31.35v3.05h0.88c0.52,0,0.92-0.14,1.2-0.41
				c0.28-0.27,0.42-0.66,0.42-1.17c0-0.47-0.14-0.83-0.41-1.09c-0.27-0.25-0.66-0.38-1.17-0.38H323.86z"/>
		</g>
		<g>
			
				<radialGradient id="SVGID_00000100349217200849529460000009625541607547430050_" cx="-821.8146" cy="162.8977" r="1.126" gradientTransform="matrix(47.57 0 0 20.15 39353.0586 -3235.1113)" gradientUnits="userSpaceOnUse">
				<stop  offset="0.18" style="stop-color:#4361AD"/>
				<stop  offset="0.57" style="stop-color:#324CA0"/>
			</radialGradient>
			<path style="fill:url(#SVGID_00000100349217200849529460000009625541607547430050_);" d="M224.3,37.51l15.76-19.24l18.02,12.51
				V43.6c0,2.17-1.77,3.94-3.94,3.94h-23.08c-3.73,0-6.76-3.03-6.76-6.76V37.51z"/>
			
				<linearGradient id="SVGID_00000097476265270257322190000003360046614702919074_" gradientUnits="userSpaceOnUse" x1="224.2998" y1="1102.9528" x2="250.1645" y2="1102.9528" gradientTransform="matrix(1 0 0 1 0 -1074.5511)">
				<stop  offset="0" style="stop-color:#76BBE7"/>
				<stop  offset="0.26" style="stop-color:#408DCC"/>
			</linearGradient>
			<path style="fill:url(#SVGID_00000097476265270257322190000003360046614702919074_);" d="M224.3,23.94c0-2.8,2.26-5.07,5.07-5.07
				h22.96l5.75-2.86v14.08c0,2.17-1.77,3.94-3.94,3.94h-23.08c-3.73,0-6.76,3.03-6.76,6.76V23.94z"/>
			
				<radialGradient id="SVGID_00000021822826846964771330000016170638204842616254_" cx="-845.3542" cy="95.1756" r="1.126" gradientTransform="matrix(-20.2287 21.2793 -52.4156 -49.8276 -11856.4395 22753.8125)" gradientUnits="userSpaceOnUse">
				<stop  offset="0.14" style="stop-color:#AD7AB5"/>
				<stop  offset="0.83" style="stop-color:#6397D0;stop-opacity:0"/>
			</radialGradient>
			<path style="fill:url(#SVGID_00000021822826846964771330000016170638204842616254_);fill-opacity:0.6;" d="M224.3,23.94
				c0-2.8,2.26-5.07,5.07-5.07h22.96l5.75-2.86v14.08c0,2.17-1.77,3.94-3.94,3.94h-23.08c-3.73,0-6.76,3.03-6.76,6.76V23.94z"/>
			
				<radialGradient id="SVGID_00000128475985457599423560000012604883144711350177_" cx="-792.4309" cy="104.547" r="1.126" gradientTransform="matrix(1.140146e-15 18.62 -101.65 6.224268e-15 10881.7139 14785.1523)" gradientUnits="userSpaceOnUse">
				<stop  offset="0.28" style="stop-color:#4F256C;stop-opacity:0"/>
				<stop  offset="1" style="stop-color:#4F256C"/>
			</radialGradient>
			<path style="fill:url(#SVGID_00000128475985457599423560000012604883144711350177_);fill-opacity:0.1;" d="M224.3,23.94
				c0-2.8,2.26-5.07,5.07-5.07h22.96l5.75-2.86v14.08c0,2.17-1.77,3.94-3.94,3.94h-23.08c-3.73,0-6.76,3.03-6.76,6.76V23.94z"/>
			
				<linearGradient id="SVGID_00000126307067980393213820000004154063424263608485_" gradientUnits="userSpaceOnUse" x1="224.2998" y1="1091.4436" x2="258.0805" y2="1092.0066" gradientTransform="matrix(1 0 0 1 0 -1074.5511)">
				<stop  offset="0" style="stop-color:#A5DEF3"/>
				<stop  offset="0.2" style="stop-color:#56CAF1"/>
			</linearGradient>
			<path style="fill:url(#SVGID_00000126307067980393213820000004154063424263608485_);" d="M224.3,13.76
				c0-3.73,3.03-6.76,6.76-6.76h23.08c2.17,0,3.94,1.77,3.94,3.94v5.63c0,2.17-1.77,3.94-3.94,3.94h-23.08
				c-3.73,0-6.76,3.03-6.76,6.76V13.76z"/>
			
				<radialGradient id="SVGID_00000080918631146207475880000016380919735357009331_" cx="-871.8587" cy="98.3452" r="1.126" gradientTransform="matrix(-28.7167 6.709 -16.0707 -68.7877 -23199.4766 12617.8184)" gradientUnits="userSpaceOnUse">
				<stop  offset="0.06" style="stop-color:#CEA9D0"/>
				<stop  offset="0.54" style="stop-color:#CEA9D0;stop-opacity:0"/>
			</radialGradient>
			<path style="fill:url(#SVGID_00000080918631146207475880000016380919735357009331_);fill-opacity:0.8;" d="M224.3,13.76
				c0-3.73,3.03-6.76,6.76-6.76h23.08c2.17,0,3.94,1.77,3.94,3.94v5.63c0,2.17-1.77,3.94-3.94,3.94h-23.08
				c-3.73,0-6.76,3.03-6.76,6.76V13.76z"/>
			
				<radialGradient id="SVGID_00000139286671422747660590000006911767689840277928_" cx="-781.0094" cy="111.9857" r="1.126" gradientTransform="matrix(16.0018 16.0018 -16.0018 16.0018 14508.0234 10729.3545)" gradientUnits="userSpaceOnUse">
				<stop  offset="0.08" style="stop-color:#4C74B9"/>
				<stop  offset="0.87" style="stop-color:#2A3382"/>
			</radialGradient>
			<path style="fill:url(#SVGID_00000139286671422747660590000006911767689840277928_);" d="M222.33,26.15h10.7
				c2.02,0,3.66,1.64,3.66,3.66v10.7c0,2.02-1.64,3.66-3.66,3.66h-10.7c-2.02,0-3.66-1.64-3.66-3.66v-10.7
				C218.67,27.79,220.31,26.15,222.33,26.15z"/>
			
				<radialGradient id="SVGID_00000047770398815239772070000009224913605254725776_" cx="-758.108" cy="31.9541" r="1.126" gradientTransform="matrix(6.858022e-16 11.2 -12.77 7.819370e-16 638.9235 8527.7158)" gradientUnits="userSpaceOnUse">
				<stop  offset="0.59" style="stop-color:#4366B0;stop-opacity:0"/>
				<stop  offset="0.97" style="stop-color:#6BA4D8"/>
			</radialGradient>
			<path style="fill:url(#SVGID_00000047770398815239772070000009224913605254725776_);fill-opacity:0.65;" d="M222.33,26.15h10.7
				c2.02,0,3.66,1.64,3.66,3.66v10.7c0,2.02-1.64,3.66-3.66,3.66h-10.7c-2.02,0-3.66-1.64-3.66-3.66v-10.7
				C218.67,27.79,220.31,26.15,222.33,26.15z"/>
			<path class="st24" d="M233.86,30.01l-2.22,10.29H229l-1.31-6.17l-1.37,6.18h-2.68l-2.13-10.29h2.18l1.32,6.79l1.31-6.79H229
				l1.36,6.79l1.28-6.79h2.22V30.01z"/>
		</g>
	</g>
</g>
</svg>
